# xmcd CD database file
#
# Track frame offsets:
# 150
# 12821
# 24906
# 46499
# 60467
# 67993
# 79817
# 88070
# 101734
# 105132
# 115011
# 120723
# 128921
# 137673
# 143283
# 149432
# 161478
# 169313
# 176676
#
# Disc length: 2438 seconds
#
# Revision: 1
# Processed by: cddbd v1.5.2PL0 Copyright (c) Steve Scherf et al.
# Submitted via: CDex 1.50beta9
#
DISCID=f4098413
DTITLE=Sigur Rós - Hlemmur
DYEAR=2002
DGENRE=Electronica
TTITLE0=Jósef tekur fimmuna í vinnuna
TTITLE1=Hlemmur 1
TTITLE2=Fyrsta ferð
TTITLE3=Vetur
TTITLE4=Hvalir í útrýmingarhættu
TTITLE5=Hlemmur 2
TTITLE6=Þversögn
TTITLE7=1970
TTITLE8=Jósef tekur fimmuna í vinnuna 2
TTITLE9=Ég mun læknast!
TTITLE10=1993
TTITLE11=Hlemmur 3
TTITLE12=Síðasta ferð
TTITLE13=23:20
TTITLE14=Byrgið
TTITLE15=Áfram Ísland
TTITLE16=Allt tekur sinn tíma!
TTITLE17=Hannes
TTITLE18=Óskabörn þjóðarinnar
EXTD=YEAR: 2002
EXTT0=
EXTT1=
EXTT2=
EXTT3=
EXTT4=
EXTT5=
EXTT6=
EXTT7=
EXTT8=
EXTT9=
EXTT10=
EXTT11=
EXTT12=
EXTT13=
EXTT14=
EXTT15=
EXTT16=
EXTT17=
EXTT18=
PLAYORDER=
